<?xml version="1.0" encoding="UTF-8"?><svg xmlns="http://www.w3.org/2000/svg" xmlns:xlink="http://www.w3.org/1999/xlink" contentScriptType="text/ecmascript" width="375pt" zoomAndPan="magnify" contentStyleType="text/css" viewBox="0 0 375 149.999998" height="149.999998pt" preserveAspectRatio="xMidYMid meet" version="1.2"><defs><g/></defs><g xml:id="surface1" id="surface1"><g style="fill:rgb(97.24884%,91.369629%,86.669922%);fill-opacity:1;"><g transform="translate(-3.631093, 103.00712)"><path style="stroke:none;" d="M 5.796875 -1.734375 L 12.75 -3.484375 L 12.75 -77.640625 L 5.796875 -79.390625 L 5.796875 -81.125 L 35.34375 -81.125 C 49.175781 -81.125 59.78125 -77.566406 67.15625 -70.453125 C 74.53125 -63.347656 78.21875 -53.382812 78.21875 -40.5625 C 78.21875 -27.738281 74.53125 -17.769531 67.15625 -10.65625 C 59.78125 -3.550781 49.175781 0 35.34375 0 L 5.796875 0 Z M 35.34375 -2.890625 C 42.53125 -2.890625 48.09375 -5.804688 52.03125 -11.640625 C 55.976562 -17.472656 57.953125 -27.113281 57.953125 -40.5625 C 57.953125 -54.007812 55.976562 -63.644531 52.03125 -69.46875 C 48.09375 -75.300781 42.53125 -78.21875 35.34375 -78.21875 L 31.875 -78.21875 L 31.875 -2.890625 Z M 35.34375 -2.890625 "/></g></g><g style="fill:rgb(97.24884%,91.369629%,86.669922%);fill-opacity:1;"><g transform="translate(79.227972, 103.00712)"><path style="stroke:none;" d="M 35.921875 1.734375 C 26.035156 1.734375 18.347656 -0.988281 12.859375 -6.4375 C 7.378906 -11.882812 4.640625 -19.394531 4.640625 -28.96875 C 4.640625 -35.226562 5.835938 -40.675781 8.234375 -45.3125 C 10.628906 -49.945312 13.96875 -53.5 18.25 -55.96875 C 22.539062 -58.445312 27.46875 -59.6875 33.03125 -59.6875 C 38.59375 -59.6875 43.476562 -58.640625 47.6875 -56.546875 C 51.894531 -54.460938 55.140625 -51.660156 57.421875 -48.140625 C 59.703125 -44.628906 60.84375 -40.75 60.84375 -36.5 C 60.84375 -34.570312 60.648438 -32.910156 60.265625 -31.515625 L 59.6875 -29.546875 C 56.363281 -28.859375 52.769531 -28.28125 48.90625 -27.8125 C 40.789062 -26.65625 32.601562 -26.078125 24.34375 -26.078125 C 24.34375 -17.109375 25.578125 -10.710938 28.046875 -6.890625 C 30.515625 -3.066406 33.914062 -1.15625 38.25 -1.15625 C 41.257812 -1.15625 44.054688 -1.867188 46.640625 -3.296875 C 49.234375 -4.734375 51.28125 -6.628906 52.78125 -8.984375 C 54.289062 -11.335938 55.046875 -13.75 55.046875 -16.21875 L 57.953125 -16.21875 C 57.953125 -13.132812 57.019531 -10.203125 55.15625 -7.421875 C 53.300781 -4.640625 50.710938 -2.414062 47.390625 -0.75 C 44.078125 0.90625 40.253906 1.734375 35.921875 1.734375 Z M 24.34375 -28.96875 C 29.28125 -28.96875 33.296875 -29.160156 36.390625 -29.546875 C 37.703125 -29.628906 39.09375 -29.820312 40.5625 -30.125 C 40.632812 -30.519531 40.828125 -31.375 41.140625 -32.6875 C 41.523438 -34.613281 41.71875 -36.660156 41.71875 -38.828125 C 41.71875 -45.234375 40.867188 -49.921875 39.171875 -52.890625 C 37.472656 -55.867188 35.425781 -57.359375 33.03125 -57.359375 C 27.238281 -57.359375 24.34375 -47.894531 24.34375 -28.96875 Z M 24.34375 -28.96875 "/></g></g><g style="fill:rgb(97.24884%,91.369629%,86.669922%);fill-opacity:1;"><g transform="translate(144.124586, 103.00712)"><path style="stroke:none;" d="M 3.484375 -54.46875 L -2.3125 -56.203125 L -2.3125 -57.953125 L 11.015625 -57.953125 C 15.109375 -57.953125 18.351562 -57.097656 20.75 -55.390625 C 23.144531 -53.691406 25.113281 -51.257812 26.65625 -48.09375 L 39.40625 -21.4375 L 46.015625 -38.359375 L 38.25 -54.46875 L 32.453125 -56.203125 L 32.453125 -57.953125 L 45.78125 -57.953125 C 49.875 -57.953125 53.117188 -57.097656 55.515625 -55.390625 C 57.910156 -53.691406 59.878906 -51.257812 61.421875 -48.09375 L 74.171875 -21.4375 L 86.34375 -52.734375 L 77.640625 -56.203125 L 77.640625 -57.953125 L 99.09375 -57.953125 L 99.09375 -56.203125 L 89.8125 -52.734375 L 68.375 1.15625 L 64.90625 1.15625 L 47.75 -34.53125 L 33.609375 1.15625 L 30.125 1.15625 Z M 3.484375 -54.46875 "/></g></g><g style="fill:rgb(97.24884%,91.369629%,86.669922%);fill-opacity:1;"><g transform="translate(240.890064, 103.00712)"><path style="stroke:none;" d="M 35.921875 1.734375 C 26.035156 1.734375 18.347656 -0.988281 12.859375 -6.4375 C 7.378906 -11.882812 4.640625 -19.394531 4.640625 -28.96875 C 4.640625 -35.226562 5.835938 -40.675781 8.234375 -45.3125 C 10.628906 -49.945312 13.96875 -53.5 18.25 -55.96875 C 22.539062 -58.445312 27.46875 -59.6875 33.03125 -59.6875 C 38.59375 -59.6875 43.476562 -58.640625 47.6875 -56.546875 C 51.894531 -54.460938 55.140625 -51.660156 57.421875 -48.140625 C 59.703125 -44.628906 60.84375 -40.75 60.84375 -36.5 C 60.84375 -34.570312 60.648438 -32.910156 60.265625 -31.515625 L 59.6875 -29.546875 C 56.363281 -28.859375 52.769531 -28.28125 48.90625 -27.8125 C 40.789062 -26.65625 32.601562 -26.078125 24.34375 -26.078125 C 24.34375 -17.109375 25.578125 -10.710938 28.046875 -6.890625 C 30.515625 -3.066406 33.914062 -1.15625 38.25 -1.15625 C 41.257812 -1.15625 44.054688 -1.867188 46.640625 -3.296875 C 49.234375 -4.734375 51.28125 -6.628906 52.78125 -8.984375 C 54.289062 -11.335938 55.046875 -13.75 55.046875 -16.21875 L 57.953125 -16.21875 C 57.953125 -13.132812 57.019531 -10.203125 55.15625 -7.421875 C 53.300781 -4.640625 50.710938 -2.414062 47.390625 -0.75 C 44.078125 0.90625 40.253906 1.734375 35.921875 1.734375 Z M 24.34375 -28.96875 C 29.28125 -28.96875 33.296875 -29.160156 36.390625 -29.546875 C 37.703125 -29.628906 39.09375 -29.820312 40.5625 -30.125 C 40.632812 -30.519531 40.828125 -31.375 41.140625 -32.6875 C 41.523438 -34.613281 41.71875 -36.660156 41.71875 -38.828125 C 41.71875 -45.234375 40.867188 -49.921875 39.171875 -52.890625 C 37.472656 -55.867188 35.425781 -57.359375 33.03125 -57.359375 C 27.238281 -57.359375 24.34375 -47.894531 24.34375 -28.96875 Z M 24.34375 -28.96875 "/></g></g><g style="fill:rgb(97.24884%,91.369629%,86.669922%);fill-opacity:1;"><g transform="translate(305.78669, 103.00712)"><path style="stroke:none;" d="M 17.390625 24.921875 C 13.910156 24.921875 11.203125 23.992188 9.265625 22.140625 C 7.335938 20.285156 6.375 17.734375 6.375 14.484375 C 6.375 11.546875 7.164062 9.265625 8.75 7.640625 C 10.332031 6.023438 12.4375 5.21875 15.0625 5.21875 C 15.6875 5.21875 16.304688 5.273438 16.921875 5.390625 C 17.535156 5.503906 17.957031 5.5625 18.1875 5.5625 L 19.703125 5.796875 L 19.703125 21.4375 C 21.941406 21.050781 23.910156 19.816406 25.609375 17.734375 C 27.304688 15.648438 29.203125 12.054688 31.296875 6.953125 L 33.609375 1.15625 L 3.484375 -54.46875 L -2.3125 -56.203125 L -2.3125 -57.953125 L 12.171875 -57.953125 C 16.179688 -57.953125 19.363281 -57.117188 21.71875 -55.453125 C 24.082031 -53.796875 26.113281 -51.34375 27.8125 -48.09375 L 42.296875 -21.328125 L 54.46875 -52.734375 L 45.78125 -56.203125 L 45.78125 -57.953125 L 67.21875 -57.953125 L 67.21875 -56.203125 L 57.953125 -52.734375 L 34.765625 6.953125 C 32.296875 13.285156 29.671875 17.863281 26.890625 20.6875 C 24.109375 23.507812 20.941406 24.921875 17.390625 24.921875 Z M 17.390625 24.921875 "/></g></g><g style="fill:rgb(100%,100%,100%);fill-opacity:1;"><g transform="translate(10.161041, 134.182633)"><path style="stroke:none;" d="M 16.578125 -4.125 C 16.722656 -4.125 16.851562 -4.066406 16.96875 -3.953125 L 18.046875 -2.796875 C 17.222656 -1.835938 16.226562 -1.09375 15.0625 -0.5625 C 13.894531 -0.0390625 12.484375 0.21875 10.828125 0.21875 C 9.398438 0.21875 8.097656 -0.0234375 6.921875 -0.515625 C 5.753906 -1.015625 4.753906 -1.710938 3.921875 -2.609375 C 3.097656 -3.503906 2.457031 -4.578125 2 -5.828125 C 1.550781 -7.085938 1.328125 -8.472656 1.328125 -9.984375 C 1.328125 -11.492188 1.5625 -12.875 2.03125 -14.125 C 2.507812 -15.382812 3.175781 -16.460938 4.03125 -17.359375 C 4.894531 -18.265625 5.925781 -18.960938 7.125 -19.453125 C 8.320312 -19.953125 9.644531 -20.203125 11.09375 -20.203125 C 12.519531 -20.203125 13.773438 -19.972656 14.859375 -19.515625 C 15.953125 -19.066406 16.910156 -18.453125 17.734375 -17.671875 L 16.84375 -16.421875 C 16.789062 -16.328125 16.71875 -16.25 16.625 -16.1875 C 16.539062 -16.132812 16.425781 -16.109375 16.28125 -16.109375 C 16.101562 -16.109375 15.894531 -16.195312 15.65625 -16.375 C 15.414062 -16.5625 15.097656 -16.765625 14.703125 -16.984375 C 14.316406 -17.203125 13.832031 -17.398438 13.25 -17.578125 C 12.664062 -17.765625 11.945312 -17.859375 11.09375 -17.859375 C 10.050781 -17.859375 9.101562 -17.679688 8.25 -17.328125 C 7.394531 -16.972656 6.660156 -16.453125 6.046875 -15.765625 C 5.429688 -15.085938 4.953125 -14.257812 4.609375 -13.28125 C 4.265625 -12.3125 4.09375 -11.210938 4.09375 -9.984375 C 4.09375 -8.734375 4.269531 -7.617188 4.625 -6.640625 C 4.976562 -5.671875 5.460938 -4.847656 6.078125 -4.171875 C 6.703125 -3.503906 7.429688 -2.992188 8.265625 -2.640625 C 9.109375 -2.285156 10.019531 -2.109375 11 -2.109375 C 11.59375 -2.109375 12.128906 -2.140625 12.609375 -2.203125 C 13.085938 -2.273438 13.53125 -2.382812 13.9375 -2.53125 C 14.34375 -2.6875 14.71875 -2.875 15.0625 -3.09375 C 15.414062 -3.320312 15.765625 -3.597656 16.109375 -3.921875 C 16.265625 -4.054688 16.421875 -4.125 16.578125 -4.125 Z M 16.578125 -4.125 "/></g></g><g style="fill:rgb(100%,100%,100%);fill-opacity:1;"><g transform="translate(42.96743, 134.182633)"><path style="stroke:none;" d="M 21.015625 -9.984375 C 21.015625 -8.484375 20.773438 -7.109375 20.296875 -5.859375 C 19.828125 -4.609375 19.160156 -3.53125 18.296875 -2.625 C 17.429688 -1.726562 16.390625 -1.03125 15.171875 -0.53125 C 13.960938 -0.0390625 12.625 0.203125 11.15625 0.203125 C 9.6875 0.203125 8.347656 -0.0390625 7.140625 -0.53125 C 5.929688 -1.03125 4.894531 -1.726562 4.03125 -2.625 C 3.164062 -3.53125 2.492188 -4.609375 2.015625 -5.859375 C 1.546875 -7.109375 1.3125 -8.484375 1.3125 -9.984375 C 1.3125 -11.484375 1.546875 -12.859375 2.015625 -14.109375 C 2.492188 -15.359375 3.164062 -16.4375 4.03125 -17.34375 C 4.894531 -18.25 5.929688 -18.953125 7.140625 -19.453125 C 8.347656 -19.953125 9.6875 -20.203125 11.15625 -20.203125 C 12.625 -20.203125 13.960938 -19.953125 15.171875 -19.453125 C 16.390625 -18.953125 17.429688 -18.25 18.296875 -17.34375 C 19.160156 -16.4375 19.828125 -15.359375 20.296875 -14.109375 C 20.773438 -12.859375 21.015625 -11.484375 21.015625 -9.984375 Z M 18.234375 -9.984375 C 18.234375 -11.210938 18.066406 -12.3125 17.734375 -13.28125 C 17.398438 -14.257812 16.925781 -15.085938 16.3125 -15.765625 C 15.695312 -16.441406 14.953125 -16.957031 14.078125 -17.3125 C 13.210938 -17.675781 12.238281 -17.859375 11.15625 -17.859375 C 10.082031 -17.859375 9.109375 -17.675781 8.234375 -17.3125 C 7.367188 -16.957031 6.625 -16.441406 6 -15.765625 C 5.382812 -15.085938 4.910156 -14.257812 4.578125 -13.28125 C 4.242188 -12.3125 4.078125 -11.210938 4.078125 -9.984375 C 4.078125 -8.753906 4.242188 -7.65625 4.578125 -6.6875 C 4.910156 -5.71875 5.382812 -4.894531 6 -4.21875 C 6.625 -3.539062 7.367188 -3.023438 8.234375 -2.671875 C 9.109375 -2.316406 10.082031 -2.140625 11.15625 -2.140625 C 12.238281 -2.140625 13.210938 -2.316406 14.078125 -2.671875 C 14.953125 -3.023438 15.695312 -3.539062 16.3125 -4.21875 C 16.925781 -4.894531 17.398438 -5.71875 17.734375 -6.6875 C 18.066406 -7.65625 18.234375 -8.753906 18.234375 -9.984375 Z M 18.234375 -9.984375 "/></g></g><g style="fill:rgb(100%,100%,100%);fill-opacity:1;"><g transform="translate(79.469505, 134.182633)"><path style="stroke:none;" d="M 13.890625 -2.265625 L 13.890625 0 L 2.546875 0 L 2.546875 -19.984375 L 5.25 -19.984375 L 5.25 -2.265625 Z M 13.890625 -2.265625 "/></g></g><g style="fill:rgb(100%,100%,100%);fill-opacity:1;"><g transform="translate(107.966583, 134.182633)"><path style="stroke:none;" d="M 13.890625 -2.265625 L 13.890625 0 L 2.546875 0 L 2.546875 -19.984375 L 5.25 -19.984375 L 5.25 -2.265625 Z M 13.890625 -2.265625 "/></g></g><g style="fill:rgb(100%,100%,100%);fill-opacity:1;"><g transform="translate(136.46366, 134.182633)"><path style="stroke:none;" d="M 14.875 -2.203125 L 14.859375 0 L 2.546875 0 L 2.546875 -19.984375 L 14.859375 -19.984375 L 14.859375 -17.78125 L 5.25 -17.78125 L 5.25 -11.140625 L 13.03125 -11.140625 L 13.03125 -9.015625 L 5.25 -9.015625 L 5.25 -2.203125 Z M 14.875 -2.203125 "/></g></g><g style="fill:rgb(100%,100%,100%);fill-opacity:1;"><g transform="translate(166.745823, 134.182633)"><path style="stroke:none;" d="M 16.578125 -4.125 C 16.722656 -4.125 16.851562 -4.066406 16.96875 -3.953125 L 18.046875 -2.796875 C 17.222656 -1.835938 16.226562 -1.09375 15.0625 -0.5625 C 13.894531 -0.0390625 12.484375 0.21875 10.828125 0.21875 C 9.398438 0.21875 8.097656 -0.0234375 6.921875 -0.515625 C 5.753906 -1.015625 4.753906 -1.710938 3.921875 -2.609375 C 3.097656 -3.503906 2.457031 -4.578125 2 -5.828125 C 1.550781 -7.085938 1.328125 -8.472656 1.328125 -9.984375 C 1.328125 -11.492188 1.5625 -12.875 2.03125 -14.125 C 2.507812 -15.382812 3.175781 -16.460938 4.03125 -17.359375 C 4.894531 -18.265625 5.925781 -18.960938 7.125 -19.453125 C 8.320312 -19.953125 9.644531 -20.203125 11.09375 -20.203125 C 12.519531 -20.203125 13.773438 -19.972656 14.859375 -19.515625 C 15.953125 -19.066406 16.910156 -18.453125 17.734375 -17.671875 L 16.84375 -16.421875 C 16.789062 -16.328125 16.71875 -16.25 16.625 -16.1875 C 16.539062 -16.132812 16.425781 -16.109375 16.28125 -16.109375 C 16.101562 -16.109375 15.894531 -16.195312 15.65625 -16.375 C 15.414062 -16.5625 15.097656 -16.765625 14.703125 -16.984375 C 14.316406 -17.203125 13.832031 -17.398438 13.25 -17.578125 C 12.664062 -17.765625 11.945312 -17.859375 11.09375 -17.859375 C 10.050781 -17.859375 9.101562 -17.679688 8.25 -17.328125 C 7.394531 -16.972656 6.660156 -16.453125 6.046875 -15.765625 C 5.429688 -15.085938 4.953125 -14.257812 4.609375 -13.28125 C 4.265625 -12.3125 4.09375 -11.210938 4.09375 -9.984375 C 4.09375 -8.734375 4.269531 -7.617188 4.625 -6.640625 C 4.976562 -5.671875 5.460938 -4.847656 6.078125 -4.171875 C 6.703125 -3.503906 7.429688 -2.992188 8.265625 -2.640625 C 9.109375 -2.285156 10.019531 -2.109375 11 -2.109375 C 11.59375 -2.109375 12.128906 -2.140625 12.609375 -2.203125 C 13.085938 -2.273438 13.53125 -2.382812 13.9375 -2.53125 C 14.34375 -2.6875 14.71875 -2.875 15.0625 -3.09375 C 15.414062 -3.320312 15.765625 -3.597656 16.109375 -3.921875 C 16.265625 -4.054688 16.421875 -4.125 16.578125 -4.125 Z M 16.578125 -4.125 "/></g></g><g style="fill:rgb(100%,100%,100%);fill-opacity:1;"><g transform="translate(199.552212, 134.182633)"><path style="stroke:none;" d="M 16.0625 -17.703125 L 9.59375 -17.703125 L 9.59375 0 L 6.90625 0 L 6.90625 -17.703125 L 0.421875 -17.703125 L 0.421875 -19.984375 L 16.0625 -19.984375 Z M 16.0625 -17.703125 "/></g></g><g style="fill:rgb(100%,100%,100%);fill-opacity:1;"><g transform="translate(230.19697, 134.182633)"><path style="stroke:none;" d="M 5.25 0 L 2.546875 0 L 2.546875 -19.984375 L 5.25 -19.984375 Z M 5.25 0 "/></g></g><g style="fill:rgb(100%,100%,100%);fill-opacity:1;"><g transform="translate(252.181267, 134.182633)"><path style="stroke:none;" d="M 18.796875 -19.984375 L 10.65625 0 L 8.234375 0 L 0.078125 -19.984375 L 2.25 -19.984375 C 2.488281 -19.984375 2.679688 -19.921875 2.828125 -19.796875 C 2.972656 -19.679688 3.085938 -19.53125 3.171875 -19.34375 L 8.796875 -5.25 C 8.921875 -4.925781 9.039062 -4.578125 9.15625 -4.203125 C 9.269531 -3.835938 9.375 -3.453125 9.46875 -3.046875 C 9.5625 -3.453125 9.660156 -3.835938 9.765625 -4.203125 C 9.867188 -4.578125 9.976562 -4.925781 10.09375 -5.25 L 15.71875 -19.34375 C 15.769531 -19.5 15.875 -19.644531 16.03125 -19.78125 C 16.195312 -19.914062 16.398438 -19.984375 16.640625 -19.984375 Z M 18.796875 -19.984375 "/></g></g><g style="fill:rgb(100%,100%,100%);fill-opacity:1;"><g transform="translate(285.238685, 134.182633)"><path style="stroke:none;" d="M 14.875 -2.203125 L 14.859375 0 L 2.546875 0 L 2.546875 -19.984375 L 14.859375 -19.984375 L 14.859375 -17.78125 L 5.25 -17.78125 L 5.25 -11.140625 L 13.03125 -11.140625 L 13.03125 -9.015625 L 5.25 -9.015625 L 5.25 -2.203125 Z M 14.875 -2.203125 "/></g></g></g></svg>